<?xml version="1.0" standalone="no"?>
<!DOCTYPE svg PUBLIC "-//W3C//DTD SVG 20010904//EN"
 "http://www.w3.org/TR/2001/REC-SVG-20010904/DTD/svg10.dtd">
<svg version="1.0" xmlns="http://www.w3.org/2000/svg"
 width="300.000000pt" height="86.000000pt" viewBox="0 0 300.000000 86.000000"
 preserveAspectRatio="xMidYMid meet">

<g transform="translate(0.000000,86.000000) scale(0.100000,-0.100000)"
fill="#000000" stroke="none">
<path d="M287 722 l-77 -77 32 -33 32 -32 53 52 53 52 55 -54 55 -54 32 31 32
32 -59 63 c-77 83 -94 98 -114 98 -9 0 -51 -35 -94 -78z"/>
<path d="M1537 783 c-42 -48 -15 -113 48 -113 18 0 41 7 49 16 22 21 20 77 -2
97 -24 22 -75 22 -95 0z"/>
<path d="M2267 620 c-27 -5 -51 -11 -54 -14 -3 -3 -2 -25 1 -49 l7 -45 42 10
c81 18 147 -5 147 -51 0 -13 -14 -16 -73 -16 -48 -1 -83 -7 -104 -18 -91 -48
-81 -195 14 -228 42 -15 152 -17 226 -6 l47 8 0 157 c0 175 -9 205 -69 236
-38 20 -122 27 -184 16z m143 -284 c0 -36 -4 -46 -21 -51 -38 -12 -89 4 -102
32 -10 22 -8 28 12 44 15 12 39 19 67 19 l44 0 0 -44z"/>
<path d="M880 611 c0 -14 58 -199 96 -309 l37 -102 47 0 48 0 33 115 c18 63
34 113 36 112 1 -2 18 -52 37 -112 l34 -110 48 0 49 0 67 200 c37 110 63 204
59 208 -5 5 -32 7 -62 5 l-53 -3 -30 -127 c-16 -71 -32 -128 -36 -128 -3 0
-17 44 -30 98 -42 177 -36 164 -82 160 l-41 -3 -29 -115 c-16 -63 -33 -121
-37 -129 -5 -8 -19 30 -36 100 -15 63 -29 122 -32 132 -3 14 -16 17 -64 17
-32 0 -59 -4 -59 -9z"/>
<path d="M1530 410 l0 -210 55 0 55 0 0 210 0 210 -55 0 -55 0 0 -210z"/>
<path d="M1765 611 l-30 -6 -3 -273 -2 -272 60 0 60 0 0 76 c0 67 2 75 18 70
51 -15 73 -16 110 -6 87 23 133 94 133 206 0 149 -70 214 -231 213 -47 -1 -98
-4 -115 -8z m194 -108 c40 -32 48 -127 15 -180 -16 -26 -61 -37 -97 -24 -27
10 -27 11 -27 116 l0 105 44 0 c27 0 52 -7 65 -17z"/>
<path d="M2580 609 c0 -22 63 -194 106 -293 24 -54 44 -102 44 -105 0 -4 -9
-17 -20 -29 -16 -17 -32 -22 -70 -22 l-49 0 -8 -42 c-8 -38 -7 -44 12 -51 11
-5 49 -7 84 -5 61 4 66 6 102 47 42 46 109 196 170 380 22 63 39 119 39 123 0
4 -27 8 -60 8 l-59 0 -11 -42 c-23 -88 -62 -213 -69 -221 -4 -4 -27 54 -51
128 l-43 135 -58 0 c-37 0 -59 -4 -59 -11z"/>
<path d="M87 522 c-42 -42 -77 -84 -77 -92 0 -9 36 -51 80 -95 l80 -80 32 33
32 32 -42 43 c-54 55 -54 79 0 134 l42 43 -29 30 c-16 16 -31 30 -35 30 -3 0
-40 -35 -83 -78z"/>
<path d="M565 560 l-29 -30 42 -43 c23 -24 42 -50 42 -58 0 -8 -18 -33 -40
-54 -22 -21 -40 -44 -40 -50 0 -6 14 -24 30 -40 l30 -29 71 69 c38 39 72 81
76 93 5 20 -7 37 -68 98 -40 41 -76 74 -79 74 -4 0 -19 -14 -35 -30z"/>
<path d="M242 247 l-32 -33 78 -77 c45 -45 86 -77 97 -77 12 0 52 31 95 75
l74 75 -34 35 -34 35 -53 -52 -53 -52 -53 52 -53 52 -32 -33z"/>
</g>
</svg>
